<svg width="400" height="400" 
        version="1.1" 
        xmlns="http://www.w3.org/2000/svg">

        
        <path style="fill:white;" d="
    M 200.0 0 
    l -75.0 75.0
    c -10 10 -10 30 0 40
    l 65.0 65.0
    l -5.0 5.0 10 10 5.0 -5.0
    l 0 -20 -65.0 -65.0
    c -5.0 -5.0 -5.0 -15.0 0 -20
    l 65.0 -65.0
    Z
"/>
        

        <path style="fill:white;" d="
    M 200.0 0 
    l 75.0 75.0
    c 10 10 10 30 0 40
    l -65.0 65.0
    l 5.0 5.0 -10 10 -5.0 -5.0
    l 0 -20 65.0 -65.0
    c 5.0 -5.0 5.0 -15.0 0 -20
    l -65.0 -65.0
    Z
"/>
        

        <path style="fill:white;" d="
    M 200.0 400 
    l -75.0 -75.0
    c -10 -10 -10 -30 0 -40
    l 65.0 -65.0
    l -5.0 -5.0 10 -10 5.0 5.0
    l 0 20 -65.0 65.0
    c -5.0 5.0 -5.0 15.0 0 20
    l 65.0 65.0
    Z
"/>
        

        <path style="fill:white;" d="
    M 200.0 400 
    l 75.0 -75.0
    c 10 -10 10 -30 0 -40
    l -65.0 -65.0
    l 5.0 -5.0 -10 -10 -5.0 5.0
    l 0 20 65.0 65.0
    c 5.0 5.0 5.0 15.0 0 20
    l -65.0 65.0
    Z
"/>
        

        <path style="fill:white;" d="
    M 0 200.0 
    l 75.0 -75.0
    c 10 -10 30 -10 40 0
    l 65.0 65.0
    l 5.0 -5.0 10 10 -5.0 5.0
    l -20 0 -65.0 -65.0
    c -5.0 -5.0 -15.0 -5.0 -20 0
    l -65.0 65.0
    Z
"/>
        

        <path style="fill:white;" d="
    M 0 200.0 
    l 75.0 75.0
    c 10 10 30 10 40 0
    l 65.0 -65.0
    l 5.0 5.0 10 -10 -5.0 -5.0
    l -20 0 -65.0 65.0
    c -5.0 5.0 -15.0 5.0 -20 0
    l -65.0 -65.0
    Z
"/>
        

        <path style="fill:white;" d="
    M 400 200.0 
    l -75.0 -75.0
    c -10 -10 -30 -10 -40 0
    l -65.0 65.0
    l -5.0 -5.0 -10 10 5.0 5.0
    l 20 0 65.0 -65.0
    c 5.0 -5.0 15.0 -5.0 20 0
    l 65.0 65.0
    Z
"/>
        

        <path style="fill:white;" d="
    M 400 200.0 
    l -75.0 75.0
    c -10 10 -30 10 -40 0
    l -65.0 -65.0
    l -5.0 5.0 -10 -10 5.0 -5.0
    l 20 0 65.0 65.0
    c 5.0 5.0 15.0 5.0 20 0
    l 65.0 -65.0
    Z
"/>
        

        <path d="
    M 200.0 0
    l 0 20
    m 0 150.0
    l 0 20

    M 200.0 400
    l 0 -20
    m 0 -150.0
    l 0 -20
" stroke="white" fill="none"/>
        

        <path d="
    M 0 200.0
    l 20 0
    m 150.0 0
    l 20 0

    M 400 200.0
    l -20 0
    m -150.0 0
    l -20 0
" stroke="white" fill="none"/>
        

        <path d="
    M 200.0 200.0
    m -5.0 -5.0
    l -10 -10

    M 200.0 200.0
    m 5.0 -5.0
    l 10 -10

    M 200.0 200.0
    m -5.0 5.0
    l -10 10

    M 200.0 200.0
    m 5.0 5.0
    l 10 10
" stroke="white" fill="none"/>
        

</svg>
